<?xml version="1.0" encoding="utf-8"?>
<!-- Generator: Adobe Illustrator 17.1.0, SVG Export Plug-In . SVG Version: 6.00 Build 0)  -->
<!DOCTYPE svg PUBLIC "-//W3C//DTD SVG 1.1//EN" "http://www.w3.org/Graphics/SVG/1.1/DTD/svg11.dtd">
<svg version="1.1" id="Layer_1" xmlns="http://www.w3.org/2000/svg" xmlns:xlink="http://www.w3.org/1999/xlink" x="0px" y="0px"
	 viewBox="0 0 200 100" enable-background="new 0 0 200 100" xml:space="preserve">
<g>
	<g>
		<g>
			<path fill="#000000" d="M188.8,13.8c-14.3,0.8-28.7-0.8-43-1c-15.1-0.2-30.2-0.1-45.3-0.1c-15.2,0-30.4,0.1-45.6,0.3
				c-7.3,0.1-14.5,0.2-21.8,0.4c-3.9,0.1-7.8,0.2-11.7,0.3c-3,0.1-6.6,0.8-9.5,0c0,0.9,0,1.9,0,2.8c0.4-0.2,0.7-0.3,1.1-0.5
				c1.7-0.7,1-3.6-0.8-2.8c-0.4,0.2-0.7,0.3-1.1,0.5c-1.3,0.5-1.5,2.4,0,2.8c4.9,1.3,11.1,0.1,16.1-0.1c7.9-0.2,15.8-0.4,23.6-0.5
				c15.2-0.2,30.4-0.3,45.6-0.3c15.1,0,30.2-0.1,45.3,0.1c15.6,0.2,31.4,2,47,1.1C190.7,16.6,190.7,13.7,188.8,13.8L188.8,13.8z"/>
		</g>
	</g>
	<g>
		<g>
			<path fill="#000000" d="M181.9,75.2c-12.9,0.4-25.7-0.3-38.6-0.6c-13.7-0.3-27.5-0.4-41.2-0.4c-13.7,0-27.3,0.1-41,0.3
				c-6.2,0.1-12.5,0.1-18.7,0c-6-0.1-11.7-1.2-17.6-1.7c-1.9-0.1-1.9,2.8,0,3c5.3,0.4,10.3,1.5,15.7,1.6c6.2,0.2,12.5,0.2,18.7,0.1
				c13.6-0.1,27.3-0.3,40.9-0.3c13.8,0,27.5,0.1,41.3,0.3c13.5,0.2,27,1.1,40.5,0.6C183.8,78.1,183.8,75.2,181.9,75.2L181.9,75.2z"
				/>
		</g>
	</g>
	<g>
		<g>
			<path fill="#000000" d="M28.1,10.7c-2,11.4-2.3,22.9-2.1,34.5c0.1,5.5,0.3,11,0.4,16.5c0.1,5.4-0.7,10.9-0.5,16.3
				c0.1,1.4,1.5,1.8,2.5,1c0.1-0.1,0.3-0.2,0.4-0.3c1.5-1.2-0.6-3.3-2.1-2.1c-0.1,0.1-0.3,0.2-0.4,0.3c0.8,0.3,1.7,0.7,2.5,1
				c-0.2-4.8,0.5-9.6,0.5-14.4c0-5.5-0.2-11-0.4-16.4c-0.3-11.9-0.2-23.9,1.9-35.6C31.2,9.7,28.4,8.9,28.1,10.7L28.1,10.7z"/>
		</g>
	</g>
	<g>
		<g>
			<path fill="#000000" d="M178.9,11.5c-1.8,14.4-3.5,28.9-4.3,43.5c-0.3,6.9-0.4,13.9-0.1,20.8c0.2,4.4-0.3,10.5,2.1,14.4
				c0.5,0.8,1.7,1,2.3,0.3c0.6-0.7,0.9-1.1,1.4-1.9c0.9-1.7-1.6-3.2-2.6-1.5c-0.3,0.4-0.6,0.9-0.9,1.3c0.8,0.1,1.5,0.2,2.3,0.3
				c-2.5-4-1.7-12.1-1.8-16.7c-0.2-6.9,0.1-13.9,0.4-20.8c0.7-13.3,2.4-26.5,4.1-39.7C182.1,9.6,179.2,9.6,178.9,11.5L178.9,11.5z"
				/>
		</g>
	</g>
</g>
</svg>
